<?xml version="1.0" encoding="utf-8"?>
<!-- Generator: Adobe Illustrator 15.0.0, SVG Export Plug-In . SVG Version: 6.00 Build 0)  -->
<!DOCTYPE svg PUBLIC "-//W3C//DTD SVG 1.1//EN" "http://www.w3.org/Graphics/SVG/1.1/DTD/svg11.dtd">
<svg version="1.1" id="Calque_1" xmlns="http://www.w3.org/2000/svg" xmlns:xlink="http://www.w3.org/1999/xlink" x="0px" y="0px"
	 width="798.08px" height="516.051px" viewBox="0 0 798.08 516.051" enable-background="new 0 0 798.08 516.051"
	 xml:space="preserve">
<path fill="none" stroke="#E62E21" stroke-miterlimit="10" d="M254.159,146.899l-25.64,32.885c0,0-31.771,37.343-33.444,39.852
	c-1.672,2.509-30.377,35.95-31.492,86.949l15.885,0.279l-14.24,152.676c0,0,15.606-23.41,17.557-26.754
	c1.951-3.344,31.521-32.006,37.374-45.382c0,0,2.787,2.229,10.033-3.345s17.001-10.59,23.688-11.146
	c6.689-0.558,8.361-0.836,8.361-0.836s2.787-4.181,5.295-1.115l13.936-9.195l3.344,5.016c0,0,1.921-7.441,10.312-8.639
	c3.902-0.559,7.805,2.229,7.805,2.229s13.377,0,21.181,2.23c7.803,2.229,15.328,6.688,15.328,6.688s9.477-13.654,29.82-7.246
	l19.229,6.131c0,0,17.001,5.019,23.132,30.377l70.339-22.52l10.311,2.508c0,0-20.453-18.445-21.566-21.791
	c-1.114-3.344-9.475-26.752-9.475-26.752s-40.41-33.441-42.361-38.181l-2.508-7.803l-7.246,1.394l-8.918-30.099l-3.345-0.558
	l-0.836-1.672l-32.788,17.461c0,0,1.705,9.75-27,3.896l31.323-39.897l50.532,13.81l1.394-0.836l3.066,0.278l-1.444-31.777
	l-23.132-5.854l-2.508,3.345l-22.948-0.297l9.301-19.786l17.229-46.522l-71.583,39.294l-0.837,2.229c0,0-9.754-3.344-13.935,1.673
	L254.159,146.899z"/>
<polygon fill="none" stroke="#E62E21" stroke-miterlimit="10" points="571.54,130.526 650.54,197.526 575.54,258.026 
	486.54,166.526 "/>
<polygon fill="none" stroke="#E62E21" stroke-miterlimit="10" points="620.54,315.526 552.54,408.526 664.54,449.526 
	701.54,372.526 "/>
</svg>
